<?xml version="1.0" encoding="utf-8"?>
<!-- Generator: Adobe Illustrator 16.0.0, SVG Export Plug-In . SVG Version: 6.00 Build 0)  -->
<!DOCTYPE svg PUBLIC "-//W3C//DTD SVG 1.1//EN" "http://www.w3.org/Graphics/SVG/1.1/DTD/svg11.dtd">
<svg version="1.1" id="Layer_1" xmlns="http://www.w3.org/2000/svg" xmlns:xlink="http://www.w3.org/1999/xlink" x="0px" y="0px"
	 viewBox="0 0 800 300" enable-background="new 0 0 800 300" xml:space="preserve">
<g id="logo__item--business">
	<g transform="translate(119.6015625 93.78694136155536) scale(2.735798137903117 2.735798137903117) rotate(0 0 0)">
		<g enable-background="new    ">
			<path fill="#009688" d="M40.819,5.687c-0.991-0.991-1.487-2.206-1.487-3.645c0-1.438,0.496-2.653,1.487-3.645
				c0.991-0.991,2.206-1.487,3.645-1.487c1.438,0,2.653,0.496,3.645,1.487c0.991,0.991,1.487,2.207,1.487,3.645
				c0,1.439-0.496,2.653-1.487,3.645c-0.991,0.991-2.207,1.487-3.645,1.487C43.025,7.175,41.81,6.679,40.819,5.687z M48.837,41.055
				H40.09V9.682h8.747V41.055z"/>
		</g>
		<g enable-background="new    ">
			<path fill="#009688" d="M54.785,0.293h16.503v40.762H62.54V8.049h-7.756V0.293z"/>
		</g>
		<g enable-background="new    ">
			<path fill="#009688" d="M85.079,2.568C87.781,0.43,91.153-0.64,95.197-0.64c4.043,0,7.406,1.07,10.088,3.207
				c2.683,2.139,4.024,4.773,4.024,7.902c0,3.13-1.205,5.822-3.615,8.077c3.382,2.605,5.073,6.027,5.073,10.264
				c0,3.577-1.439,6.589-4.315,9.039c-2.878,2.449-6.629,3.674-11.255,3.674c-4.627,0-8.378-1.225-11.255-3.674
				c-2.877-2.449-4.315-5.462-4.315-9.039c0-4.237,1.691-7.659,5.073-10.264c-2.449-2.293-3.674-4.995-3.674-8.106
				C81.027,7.33,82.377,4.706,85.079,2.568z M90.765,32.57c1.36,0.914,2.837,1.371,4.432,1.371c1.594,0,3.071-0.457,4.432-1.371
				c1.36-0.913,2.041-2.245,2.041-3.994s-0.662-3.091-1.983-4.024c-1.322-0.933-2.819-1.4-4.49-1.4c-1.672,0-3.169,0.467-4.49,1.4
				c-1.322,0.933-1.983,2.274-1.983,4.024S89.404,31.657,90.765,32.57z M91.319,14.755c1.108,0.933,2.4,1.399,3.878,1.399
				c1.477,0,2.77-0.467,3.878-1.399c1.108-0.933,1.662-2.089,1.662-3.47c0-1.379-0.545-2.537-1.633-3.47
				c-1.089-0.933-2.391-1.4-3.907-1.4s-2.819,0.467-3.907,1.4c-1.089,0.933-1.633,2.09-1.633,3.47
				C89.657,12.666,90.211,13.822,91.319,14.755z"/>
		</g>
		<g enable-background="new    ">
			<path fill="#009688" d="M126.803,23.561v17.494h-8.747V9.682h8.747v3.499c2.643-2.683,5.617-4.024,8.922-4.024
				c3.304,0,6.074,1.166,8.31,3.499c2.235,2.333,3.353,5.443,3.353,9.331v19.069h-8.747V23.328c0-4.82-1.769-7.231-5.307-7.231
				c-1.749,0-3.276,0.632-4.578,1.895C127.454,19.256,126.803,21.112,126.803,23.561z"/>
		</g>
		<g enable-background="new    ">
			<path fill="#009688" d="M182.493,36.507c-3.538,3.344-7.688,5.015-12.45,5.015c-4.763,0-8.699-1.467-11.809-4.403
				c-3.111-2.935-4.665-6.871-4.665-11.808c0-4.937,1.583-8.864,4.753-11.78c3.168-2.916,6.91-4.373,11.226-4.373
				c4.315,0,7.979,1.303,10.992,3.907c3.012,2.605,4.519,6.181,4.519,10.73v4.665H162.2c0.272,1.711,1.166,3.111,2.683,4.199
				c1.516,1.089,3.227,1.633,5.132,1.633c3.071,0,5.598-1.03,7.581-3.091L182.493,36.507z M174.096,17.904
				c-1.206-1.011-2.674-1.516-4.403-1.516c-1.73,0-3.315,0.525-4.753,1.575c-1.439,1.05-2.274,2.469-2.508,4.257h13.762
				C176,20.354,175.301,18.916,174.096,17.904z"/>
		</g>
		<g enable-background="new    ">
			<path fill="#009688" d="M198.121,9.682l5.365,8.397l5.54-8.397h10.263l-10.788,15.336l11.196,16.037h-10.438l-6.123-8.631
				l-5.948,8.631H187.1l10.963-15.978l-10.38-15.395H198.121z"/>
		</g>
		<g enable-background="new    ">
			<path fill="#009688" d="M235.034,15.98v14.054c0,1.205,0.311,2.149,0.933,2.828c0.621,0.681,1.36,1.021,2.216,1.021
				c1.633,0,3.012-0.738,4.14-2.216l3.265,6.123c-2.721,2.488-5.589,3.732-8.601,3.732c-3.013,0-5.56-0.991-7.639-2.974
				c-2.08-1.983-3.12-4.685-3.12-8.106V15.98h-3.674V9.682h3.674V0.293h8.805v9.389h7.581v6.298H235.034z"/>
		</g>
	</g>
</g>
<g id="logo__item--logo_0">
	<g transform="translate(-33.15990560676016 -17) scale(1.584974472952939 1.584974472952939) rotate(0 0 0)">
		<g>
			<path fill="#009688" d="M88.822,51.582v25.966l29.179,74.943c0,0,8.908,18.303-16.57,22.763H43.308
				c0,0-23.747-2.478-18.054-21.281l30.664-76.424V51.582H88.822z"/>
			<g>
				<g>
					<path fill="#004D40" d="M89.438,48.563H54.435c-2.835,0-5.141-2.522-5.141-5.638c0-3.118,2.305-5.64,5.141-5.64h35.003
						c2.848,0,5.15,2.522,5.15,5.64C94.588,46.041,92.285,48.563,89.438,48.563z"/>
				</g>
			</g>
			<path fill="#FFFFFF" d="M80.204,93.979c3.756,0,6.819,3.67,6.819,8.215c0,4.525-3.065,8.204-6.819,8.204
				c-3.765,0-6.819-3.679-6.819-8.204C73.385,97.647,76.439,93.979,80.204,93.979z"/>
			<ellipse fill="#FFFFFF" cx="59.271" cy="108.362" rx="5.748" ry="6.928"/>
			<path fill="#004D40" d="M91.417,75.827v-12.35c0,0,15.661-3.453,23.488,14.763C114.905,78.239,102.707,87.127,91.417,75.827z"/>
			<path fill="#004D40" d="M53.059,75.827v-12.35c0,0-15.663-3.453-23.486,14.763C29.573,78.239,41.759,87.127,53.059,75.827z"/>
			<path fill="#FFFFFF" d="M100.833,126.935c-25.467-7.9-46.878-3.659-57.343-0.453l-10.553,25.401
				c-4.751,15.164,15.087,17.157,15.087,17.157h48.545c21.279-3.595,13.842-18.347,13.842-18.347L100.833,126.935z"/>
			<path fill="#004D40" d="M64.131,136.373c0,2.739-3.681,4.967-8.215,4.967c-4.534,0-8.204-2.229-8.204-4.967
				c0-2.75,3.67-4.97,8.204-4.97C60.452,131.405,64.131,133.623,64.131,136.373z"/>
			<path fill="#004D40" d="M93.345,136.373c0,2.739-3.681,4.967-8.204,4.967c-4.547,0-8.215-2.229-8.215-4.967
				c0-2.75,3.668-4.97,8.215-4.97C89.666,131.405,93.345,133.623,93.345,136.373z"/>
		</g>
	</g>
</g>
</svg>
